<svg width="254" height="293" viewBox="0 0 254 293" fill="none" xmlns="http://www.w3.org/2000/svg">
<path d="M98.2856 39.9302C109.387 39.9942 120.416 41.7241 131.003 45.0619C131.003 45.0619 157.505 90.2835 160.637 100.643C159.529 110.859 142.303 127.603 142.303 127.603L98.2856 39.9302Z" fill="#373737"/>
<path opacity="0.3" d="M98.2856 39.9302C109.387 39.9942 120.416 41.7241 131.003 45.0619C131.003 45.0619 157.505 90.2835 160.637 100.643C159.529 110.859 142.303 127.603 142.303 127.603L98.2856 39.9302Z" fill="white"/>
<path d="M176.779 259.484C166.574 247.005 157.267 233.818 148.928 220.021C146.905 216.535 144.985 212.986 143.17 209.372C142.134 207.324 141.146 205.276 140.183 203.204C138.918 201.188 137.937 199.007 137.268 196.723C134.376 166.198 144.833 143.72 134.858 119.218L95.1538 134.733C95.1538 134.733 98.5268 178.389 106.236 204.602C111.055 220.816 121.848 234.838 132.28 247.824C135.533 251.871 138.665 256.039 141.917 260.111C145.17 264.182 148.446 267.483 151.554 271.314C156.252 277.12 157.794 282.685 154.253 289.528L153.65 290.612C152.639 292.395 157.361 294.419 160.348 290.612C165.167 284.396 164.492 284.781 168.684 279.481C171.238 276.277 174.153 272.783 176.683 269.844C177.903 268.399 178.581 266.573 178.598 264.682C178.616 262.79 177.972 260.952 176.779 259.484Z" fill="#373737"/>
<path opacity="0.7" d="M176.779 259.484C166.574 247.005 157.267 233.818 148.928 220.021C146.905 216.535 144.985 212.986 143.17 209.372C142.134 207.324 141.146 205.276 140.183 203.204C138.918 201.188 137.937 199.007 137.268 196.723C134.376 166.198 144.833 143.72 134.858 119.218L95.1538 134.733C95.1538 134.733 98.5268 178.389 106.236 204.602C111.055 220.816 121.848 234.838 132.28 247.824C135.533 251.871 138.665 256.039 141.917 260.111C145.17 264.182 148.446 267.483 151.554 271.314C156.252 277.12 157.794 282.685 154.253 289.528L153.65 290.612C152.639 292.395 157.361 294.419 160.348 290.612C165.167 284.396 164.492 284.781 168.684 279.481C171.238 276.277 174.153 272.783 176.683 269.844C177.903 268.399 178.581 266.573 178.598 264.682C178.616 262.79 177.972 260.952 176.779 259.484Z" fill="white"/>
<path opacity="0.3" d="M167.07 246.933C160.769 253.687 153.776 259.759 146.206 265.051C147.242 266.207 148.253 267.46 149.289 268.568C156.869 263.448 163.753 257.366 169.768 250.475L167.07 246.933Z" fill="#373737"/>
<path opacity="0.3" d="M176.779 259.485L176.49 259.147C174.637 261.274 173.558 263.966 173.431 266.785C173.276 268.718 173.59 270.66 174.346 272.447L176.635 269.724C177.831 268.294 178.499 266.495 178.525 264.63C178.551 262.765 177.935 260.949 176.779 259.485Z" fill="#373737"/>
<path d="M88.8412 68.8413C84.5368 75.2863 79.3736 81.1142 73.4943 86.1638C70.2339 88.9739 66.6607 91.3991 62.8453 93.3916C60.8408 94.4187 58.7632 95.2964 56.6295 96.0177L54.9912 96.5477L54.4612 96.6922L53.3288 97.0055C52.6316 97.1709 51.9229 97.2837 51.2087 97.3428C49.1761 97.4982 47.1319 97.3109 45.1614 96.7886C42.6766 96.0833 40.2951 95.0546 38.0782 93.7289C36.2945 92.6861 34.5656 91.5523 32.8984 90.3318C29.886 88.0913 27.0062 85.678 24.2733 83.1041C19.0032 78.1108 14.1673 72.6784 9.81776 66.8657C8.98019 65.7333 8.56413 64.3441 8.64145 62.9377C8.71876 61.5314 9.28454 60.1961 10.2412 59.1624C11.1978 58.1286 12.4854 57.4612 13.8815 57.2753C15.2777 57.0895 16.695 57.3968 17.8888 58.1442H18.0815C23.7673 61.7581 29.5013 65.5647 35.0908 68.9618C37.9337 70.6242 40.6803 72.3106 43.4027 73.6116C44.6456 74.2623 45.9245 74.8415 47.2334 75.3463C48.0488 75.7063 48.9217 75.9184 49.8114 75.9727C49.9559 75.9727 49.8113 75.804 48.9199 75.8281C48.639 75.8113 48.3575 75.8113 48.0767 75.8281L47.5467 75.9486L48.3417 75.539C49.4123 74.963 50.45 74.3276 51.4496 73.6357C53.6053 72.1158 55.621 70.4064 57.4728 68.5281C61.6818 64.1172 65.6239 59.4591 69.2781 54.5785C71.2802 52.3386 74.047 50.9276 77.0358 50.6224C80.0245 50.3172 83.0194 51.1398 85.433 52.9288C87.8465 54.7179 89.5044 57.3442 90.0815 60.2926C90.6585 63.2409 90.1131 66.2985 88.5521 68.8654L88.8412 68.8413Z" fill="#373737"/>
<path opacity="0.7" d="M88.8412 68.8413C84.5368 75.2863 79.3736 81.1142 73.4943 86.1638C70.2339 88.9739 66.6607 91.3991 62.8453 93.3916C60.8408 94.4187 58.7632 95.2964 56.6295 96.0177L54.9912 96.5477L54.4612 96.6922L53.3288 97.0055C52.6316 97.1709 51.9229 97.2837 51.2087 97.3428C49.1761 97.4982 47.1319 97.3109 45.1614 96.7886C42.6766 96.0833 40.2951 95.0546 38.0782 93.7289C36.2945 92.6861 34.5656 91.5523 32.8984 90.3318C29.886 88.0913 27.0062 85.678 24.2733 83.1041C19.0032 78.1108 14.1673 72.6784 9.81776 66.8657C8.98019 65.7333 8.56413 64.3441 8.64145 62.9377C8.71876 61.5314 9.28454 60.1961 10.2412 59.1624C11.1978 58.1286 12.4854 57.4612 13.8815 57.2753C15.2777 57.0895 16.695 57.3968 17.8888 58.1442H18.0815C23.7673 61.7581 29.5013 65.5647 35.0908 68.9618C37.9337 70.6242 40.6803 72.3106 43.4027 73.6116C44.6456 74.2623 45.9245 74.8415 47.2334 75.3463C48.0488 75.7063 48.9217 75.9184 49.8114 75.9727C49.9559 75.9727 49.8113 75.804 48.9199 75.8281C48.639 75.8113 48.3575 75.8113 48.0767 75.8281L47.5467 75.9486L48.3417 75.539C49.4123 74.963 50.45 74.3276 51.4496 73.6357C53.6053 72.1158 55.621 70.4064 57.4728 68.5281C61.6818 64.1172 65.6239 59.4591 69.2781 54.5785C71.2802 52.3386 74.047 50.9276 77.0358 50.6224C80.0245 50.3172 83.0194 51.1398 85.433 52.9288C87.8465 54.7179 89.5044 57.3442 90.0815 60.2926C90.6585 63.2409 90.1131 66.2985 88.5521 68.8654L88.8412 68.8413Z" fill="white"/>
<path d="M0.783408 52.9885L3.60219 57.807C3.60219 57.807 5.74648 64.1192 10.059 65.2756L21.768 61.4931L21.1657 60.5053C19.6719 58.2406 19.8406 53.8317 20.3465 50.1696C20.8525 46.5076 18.9733 46.3871 17.5759 47.3026C16.5855 48.4417 15.8905 49.8069 15.5521 51.2779C14.9774 50.4823 14.341 49.7331 13.6488 49.0373L10.0831 45.4716C9.33509 44.7404 8.33832 44.3192 7.29268 44.2924C6.24704 44.2656 5.22992 44.6352 4.44544 45.327L1.55431 47.9049C0.868446 48.5393 0.418602 49.388 0.278515 50.3117C0.138428 51.2354 0.316473 52.1792 0.783408 52.9885Z" fill="#373737"/>
<path opacity="0.7" d="M0.783408 52.9885L3.60219 57.807C3.60219 57.807 5.74648 64.1192 10.059 65.2756L21.768 61.4931L21.1657 60.5053C19.6719 58.2406 19.8406 53.8317 20.3465 50.1696C20.8525 46.5076 18.9733 46.3871 17.5759 47.3026C16.5855 48.4417 15.8905 49.8069 15.5521 51.2779C14.9774 50.4823 14.341 49.7331 13.6488 49.0373L10.0831 45.4716C9.33509 44.7404 8.33832 44.3192 7.29268 44.2924C6.24704 44.2656 5.22992 44.6352 4.44544 45.327L1.55431 47.9049C0.868446 48.5393 0.418602 49.388 0.278515 50.3117C0.138428 51.2354 0.316473 52.1792 0.783408 52.9885Z" fill="white"/>
<path d="M110.115 35.6416C97.1277 39.0841 84.6871 44.3312 73.1572 51.2295C71.3584 52.3553 69.9468 54.004 69.1114 55.9546C68.276 57.9053 68.0569 60.0647 68.4833 62.1434C73.1332 84.8867 83.7098 115.34 95.1296 134.734L148.398 112.689C148.76 103.293 135.822 72.8887 122.643 43.4958C120.282 38.2195 115.729 34.2924 110.115 35.6416Z" fill="#373737"/>
<path opacity="0.8" d="M110.115 35.6416C97.1277 39.0841 84.6871 44.3312 73.1572 51.2295C71.3584 52.3553 69.9468 54.004 69.1114 55.9546C68.276 57.9053 68.0569 60.0647 68.4833 62.1434C73.1332 84.8867 83.7098 115.34 95.1296 134.734L148.398 112.689C148.76 103.293 135.822 72.8887 122.643 43.4958C120.282 38.2195 115.729 34.2924 110.115 35.6416Z" fill="white"/>
<path opacity="0.3" d="M130.908 62.1188L120.331 58.5771C122.74 64.7689 131.245 72.599 137.196 77.2007C135.268 72.3822 133.124 67.3227 130.908 62.1188Z" fill="#373737"/>
<path d="M106.622 11.79C102.213 3.40576 92.6961 -0.810423 81.2763 0.129185C71.6392 0.948331 63.1104 10.7781 64.1223 16.0784C65.1342 21.3788 73.2293 23.6435 74.7712 25.4745L68.0976 30.293C67.3071 30.8636 66.6401 31.5883 66.137 32.4234C65.6338 33.2585 65.3047 34.1868 65.1697 35.1524C65.0346 36.118 65.0964 37.101 65.3511 38.0421C65.6059 38.9832 66.0484 39.8631 66.6521 40.6287C69.4709 44.1944 73.1812 47.8565 75.3254 50.5548C93.7803 50.073 107.441 43.0379 112.38 36.268C110.524 27.691 110.91 20.126 106.622 11.79Z" fill="#373737"/>
<path opacity="0.8" d="M106.622 11.79C102.213 3.40576 92.6961 -0.810423 81.2763 0.129185C71.6392 0.948331 63.1104 10.7781 64.1223 16.0784C65.1342 21.3788 73.2293 23.6435 74.7712 25.4745L68.0976 30.293C67.3071 30.8636 66.6401 31.5883 66.137 32.4234C65.6338 33.2585 65.3047 34.1868 65.1697 35.1524C65.0346 36.118 65.0964 37.101 65.3511 38.0421C65.6059 38.9832 66.0484 39.8631 66.6521 40.6287C69.4709 44.1944 73.1812 47.8565 75.3254 50.5548C93.7803 50.073 107.441 43.0379 112.38 36.268C110.524 27.691 110.91 20.126 106.622 11.79Z" fill="white"/>
<path d="M97.5626 16.9946C98.8727 20.3546 99.1573 24.0275 98.3804 27.5492C97.6034 31.0709 95.7998 34.2831 93.1976 36.78C90.5954 39.2768 87.3114 40.9462 83.7606 41.577C80.2098 42.2078 76.5518 41.7717 73.2488 40.3239C69.9458 38.8761 67.1462 36.4816 65.2038 33.443C63.2615 30.4044 62.2636 26.8582 62.3362 23.2526C62.4089 19.6469 63.5489 16.1438 65.6121 13.186C67.6753 10.2281 70.5692 7.94833 73.9278 6.63481C78.4361 4.87854 83.4571 4.98304 87.8883 6.92539C92.3196 8.86775 95.799 12.4892 97.5626 16.9946Z" fill="#263238"/>
<path d="M253.996 234.115C253.731 226.189 253.37 226.887 253.153 220.214C253.008 216.118 252.984 211.565 252.96 207.638C252.952 205.773 252.3 203.968 251.115 202.528C249.93 201.088 248.284 200.102 246.455 199.735C243.275 199.085 240.071 198.482 236.818 197.808C232.65 196.916 228.53 195.953 224.459 194.772C221.279 193.857 218.147 192.845 215.039 191.712C211.931 190.58 208.437 189.303 205.209 187.809C201.402 186.195 197.644 184.461 193.934 182.654C189.766 180.678 185.646 178.606 181.526 176.51C165.673 150.273 165.336 132.975 148.327 112.689L111.802 129.216C111.802 129.216 138.641 176.823 156.903 197.013C167.432 208.625 183.935 213.878 198.656 217.684C209.281 220.407 220.05 222.503 230.819 224.502C235.011 225.273 239.565 225.562 243.179 228.068C245.852 230.118 247.686 233.074 248.335 236.38C248.495 237.055 248.64 237.729 248.768 238.404C249.226 240.427 254.165 238.886 253.996 234.115Z" fill="#373737"/>
<path opacity="0.8" d="M253.996 234.115C253.731 226.189 253.37 226.887 253.153 220.214C253.008 216.118 252.984 211.565 252.96 207.638C252.952 205.773 252.3 203.968 251.115 202.528C249.93 201.088 248.284 200.102 246.455 199.735C243.275 199.085 240.071 198.482 236.818 197.808C232.65 196.916 228.53 195.953 224.459 194.772C221.279 193.857 218.147 192.845 215.039 191.712C211.931 190.58 208.437 189.303 205.209 187.809C201.402 186.195 197.644 184.461 193.934 182.654C189.766 180.678 185.646 178.606 181.526 176.51C165.673 150.273 165.336 132.975 148.327 112.689L111.802 129.216C111.802 129.216 138.641 176.823 156.903 197.013C167.432 208.625 183.935 213.878 198.656 217.684C209.281 220.407 220.05 222.503 230.819 224.502C235.011 225.273 239.565 225.562 243.179 228.068C245.852 230.118 247.686 233.074 248.335 236.38C248.495 237.055 248.64 237.729 248.768 238.404C249.226 240.427 254.165 238.886 253.996 234.115Z" fill="white"/>
<path opacity="0.3" d="M235.469 197.495C234.023 197.181 232.577 196.868 231.108 196.507C231.228 204.843 227.325 219.202 225.904 223.563L230.481 224.43C233.481 215.751 235.162 206.672 235.469 197.495Z" fill="#373737"/>
<path opacity="0.3" d="M253.057 207.637C253.05 205.776 252.401 203.974 251.221 202.534C250.04 201.095 248.4 200.106 246.576 199.735L244.167 199.277C244.554 202.016 245.955 204.51 248.094 206.264C249.469 207.536 251.117 208.475 252.912 209.011C253.057 208.577 253.057 208.095 253.057 207.637Z" fill="#373737"/>
<path d="M94.1658 17.1382C95.1295 20.8003 91.0338 24.631 87.7813 21.4748C84.7456 18.2201 81.4236 15.2447 77.8552 12.5847C74.5063 10.4887 78.9634 6.8266 84.2397 8.24806C86.4912 8.81369 88.5713 9.91855 90.3006 11.4674C92.0299 13.0162 93.3564 14.9624 94.1658 17.1382Z" fill="white"/>
<path d="M94.4311 133.554C92.7446 134.18 95.8284 137.071 95.8284 137.071C95.8284 137.071 129.558 125.531 150.037 113.653C150.086 112.934 149.963 112.214 149.678 111.552C149.393 110.89 148.955 110.305 148.398 109.847C130.872 118.762 112.854 126.677 94.4311 133.554Z" fill="#373737"/>
<path opacity="0.5" d="M94.4311 133.554C92.7446 134.18 95.8284 137.071 95.8284 137.071C95.8284 137.071 129.558 125.531 150.037 113.653C150.086 112.934 149.963 112.214 149.678 111.552C149.393 110.89 148.955 110.305 148.398 109.847C130.872 118.762 112.854 126.677 94.4311 133.554Z" fill="white"/>
<path d="M119.246 34.0512C125.896 37.4241 132.136 40.9657 138.52 44.8928C141.628 46.8684 144.712 48.8681 147.772 51.0364C150.832 53.2047 153.867 55.4213 156.927 57.9269L158.059 58.8665L159.481 60.1675C160.328 60.9253 161.132 61.7297 161.89 62.5767C162.661 63.42 163.312 64.2391 163.938 64.986C164.564 65.7329 165.239 66.6243 165.793 67.3952C168.038 70.4925 170.113 73.7096 172.009 77.0322C175.743 83.4754 178.965 90.2019 181.646 97.1495C182.142 98.4622 182.167 99.9059 181.718 101.235C181.27 102.565 180.374 103.698 179.185 104.442C177.995 105.186 176.585 105.494 175.193 105.316C173.801 105.137 172.514 104.482 171.551 103.462L171.431 103.317C166.612 98.1855 161.962 92.7887 157.288 87.7534C152.614 82.7181 147.868 77.6105 143.941 75.3699C138.472 71.9728 132.377 68.5758 126.33 65.251L108.116 55.1321C105.291 53.6369 103.177 51.081 102.237 48.0267C101.297 44.9724 101.609 41.6699 103.104 38.8456C104.6 36.0213 107.155 33.9067 110.21 32.9669C113.264 32.0271 116.567 32.3392 119.391 33.8344L119.246 34.0512Z" fill="#373737"/>
<path opacity="0.8" d="M119.246 34.0512C125.896 37.4241 132.136 40.9657 138.52 44.8928C141.628 46.8684 144.712 48.8681 147.772 51.0364C150.832 53.2047 153.867 55.4213 156.927 57.9269L158.059 58.8665L159.481 60.1675C160.328 60.9253 161.132 61.7297 161.89 62.5767C162.661 63.42 163.312 64.2391 163.938 64.986C164.564 65.7329 165.239 66.6243 165.793 67.3952C168.038 70.4925 170.113 73.7096 172.009 77.0322C175.743 83.4754 178.965 90.2019 181.646 97.1495C182.142 98.4622 182.167 99.9059 181.718 101.235C181.27 102.565 180.374 103.698 179.185 104.442C177.995 105.186 176.585 105.494 175.193 105.316C173.801 105.137 172.514 104.482 171.551 103.462L171.431 103.317C166.612 98.1855 161.962 92.7887 157.288 87.7534C152.614 82.7181 147.868 77.6105 143.941 75.3699C138.472 71.9728 132.377 68.5758 126.33 65.251L108.116 55.1321C105.291 53.6369 103.177 51.081 102.237 48.0267C101.297 44.9724 101.609 41.6699 103.104 38.8456C104.6 36.0213 107.155 33.9067 110.21 32.9669C113.264 32.0271 116.567 32.3392 119.391 33.8344L119.246 34.0512Z" fill="white"/>
<path d="M187.356 109.172L185.308 104.04C185.308 104.04 184.175 97.4868 180.104 95.6558L168.057 97.5591L168.467 98.6191C169.575 101.028 168.732 105.437 167.648 108.955C166.564 112.472 168.395 112.93 169.937 112.231C170.804 111.846 171.647 110.28 172.563 108.618C173.012 109.455 173.519 110.26 174.081 111.027L177.044 115.098C177.663 115.942 178.578 116.52 179.606 116.717C180.634 116.914 181.698 116.714 182.585 116.158L185.862 114.062C186.629 113.538 187.194 112.768 187.466 111.879C187.737 110.99 187.698 110.035 187.356 109.172Z" fill="#373737"/>
<path opacity="0.8" d="M187.356 109.172L185.308 104.04C185.308 104.04 184.175 97.4868 180.104 95.6558L168.057 97.5591L168.467 98.6191C169.575 101.028 168.732 105.437 167.648 108.955C166.564 112.472 168.395 112.93 169.937 112.231C170.804 111.846 171.647 110.28 172.563 108.618C173.012 109.455 173.519 110.26 174.081 111.027L177.044 115.098C177.663 115.942 178.578 116.52 179.606 116.717C180.634 116.914 181.698 116.714 182.585 116.158L185.862 114.062C186.629 113.538 187.194 112.768 187.466 111.879C187.737 110.99 187.698 110.035 187.356 109.172Z" fill="white"/>
<path opacity="0.3" d="M109.079 61.7583L106.14 61.9992L88.0942 105.558C89.0806 105.629 90.0719 105.548 91.0335 105.318C91.0335 105.318 114.548 96.5479 121.655 93.2713C116.885 83.4175 109.079 61.7583 109.079 61.7583Z" fill="#373737"/>
<path d="M76.1445 73.177C78.3371 84.5636 82.4081 95.5063 88.1908 105.557C97.0086 102.522 111.705 96.7876 118.836 93.511C114.043 83.2354 109.789 72.7168 106.092 61.998C98.5505 62.504 81.999 68.8403 76.1445 73.177Z" fill="white"/>
<path opacity="0.3" d="M94.0459 82.5983C93.6936 83.7765 92.9999 84.8237 92.0524 85.6075C91.1049 86.3913 89.9461 86.8764 88.7228 87.0015C87.4994 87.1266 86.2665 86.8861 85.18 86.3103C84.0934 85.7345 83.202 84.8494 82.6186 83.7669C82.0352 82.6844 81.786 81.4532 81.9025 80.229C82.019 79.0049 82.496 77.8428 83.2731 76.8897C84.0502 75.9367 85.0925 75.2356 86.2682 74.8751C87.4439 74.5146 88.7001 74.511 89.8778 74.8646C91.4555 75.3383 92.7807 76.4189 93.5622 77.869C94.3437 79.319 94.5177 81.02 94.0459 82.5983Z" fill="#373737"/>
<path opacity="0.6" d="M98.6476 74.3099C98.5537 74.712 98.3404 75.0764 98.0357 75.3552C97.731 75.6339 97.3492 75.8141 96.9403 75.8719C96.5314 75.9298 96.1145 75.8627 95.7444 75.6794C95.3743 75.4961 95.0684 75.2052 94.8666 74.8448C94.6648 74.4845 94.5767 74.0716 94.6137 73.6603C94.6508 73.249 94.8115 72.8585 95.0745 72.5401C95.3374 72.2217 95.6906 71.9903 96.0875 71.8761C96.4844 71.762 96.9065 71.7705 97.2984 71.9006C97.7866 72.0567 98.1973 72.3923 98.4477 72.8394C98.6981 73.2866 98.7696 73.8121 98.6476 74.3099Z" fill="#373737"/>
<path opacity="0.6" d="M104.044 72.2136C103.987 72.4931 103.873 72.7577 103.708 72.9905C103.544 73.2232 103.332 73.419 103.087 73.5653C102.842 73.7116 102.57 73.8052 102.287 73.84C102.004 73.8749 101.717 73.8502 101.444 73.7677C101.171 73.6851 100.918 73.5465 100.702 73.3606C100.486 73.1748 100.311 72.9458 100.188 72.6884C100.065 72.4309 99.9977 72.1507 99.9896 71.8657C99.9815 71.5807 100.033 71.2971 100.141 71.0331C100.218 70.7782 100.345 70.5409 100.514 70.3351C100.683 70.1292 100.891 69.9587 101.126 69.8333C101.361 69.708 101.618 69.6302 101.883 69.6046C102.148 69.579 102.416 69.6059 102.671 69.6839C103.186 69.8401 103.62 70.1933 103.877 70.6668C104.134 71.1403 104.194 71.6961 104.044 72.2136Z" fill="#373737"/>
<path opacity="0.5" d="M111.609 90.9825L89.3232 99.7762L87.998 95.3914L110.26 86.5977L111.609 90.9825Z" fill="#373737"/>
</svg>
